<?xml version="1.0" standalone="no"?>
<!DOCTYPE svg PUBLIC "-//W3C//DTD SVG 20010904//EN"
 "http://www.w3.org/TR/2001/REC-SVG-20010904/DTD/svg10.dtd">
<svg version="1.0" xmlns="http://www.w3.org/2000/svg"
 width="675.000000pt" height="675.000000pt" viewBox="0 0 675.000000 675.000000"
 preserveAspectRatio="xMidYMid meet">
<metadata>
Created by potrace 1.11, written by Peter Selinger 2001-2013
</metadata>
<g transform="translate(0.000000,675.000000) scale(0.100000,-0.100000)"
fill="#000000" stroke="none">
<path d="M3709 4586 c-2 -2 -44 -6 -94 -10 -49 -3 -133 -9 -185 -13 -52 -4
-110 -7 -127 -7 -30 0 -33 -3 -34 -31 -1 -16 -2 -459 -3 -983 l-1 -953 100 6
c185 10 358 25 363 30 9 9 4 1947 -5 1956 -5 5 -11 8 -14 5z"/>
<path d="M2706 4528 c-94 -11 -183 -55 -239 -118 -93 -103 -118 -190 -124
-440 -3 -102 -6 -186 -7 -187 -1 -1 -25 -3 -55 -4 -29 -2 -58 -8 -65 -14 -7
-8 -11 -70 -11 -190 l0 -179 68 3 67 2 0 -439 0 -439 33 3 c17 2 68 5 112 8
114 6 287 18 305 21 13 2 15 59 17 439 1 241 3 439 5 441 2 1 39 5 83 8 44 4
80 6 80 7 0 0 0 82 0 183 0 139 -3 183 -13 187 -7 3 -43 3 -80 -1 -37 -3 -69
-5 -70 -3 -2 1 -3 53 -3 114 2 174 33 217 125 173 l41 -20 0 213 c0 117 -3
215 -5 218 -18 18 -168 26 -264 14z"/>
<path d="M4280 4437 c-124 -9 -188 -14 -215 -16 -20 -1 -20 -8 -20 -276 0
-200 3 -271 11 -262 15 17 342 530 349 549 3 8 0 14 -7 14 -7 0 -60 -4 -118
-9z"/>
<path d="M388 4185 c-2 -2 -59 -6 -126 -10 -172 -9 -245 -15 -250 -20 -2 -2
-5 -407 -6 -899 l-2 -896 50 5 c52 4 142 11 301 21 50 3 100 6 110 8 20 3 20
18 23 900 l2 896 -50 -1 c-27 -1 -51 -3 -52 -4z"/>
<path d="M6537 4073 c-2 -1 -123 -10 -262 -19 -49 -3 -94 -10 -100 -15 -5 -5
-31 -67 -57 -137 -25 -70 -48 -120 -51 -112 -2 8 -12 38 -21 65 -10 28 -27 78
-38 113 -19 56 -28 66 -58 64 -24 -2 -187 -13 -235 -17 -33 -2 -105 -7 -160
-11 -55 -3 -101 -7 -102 -8 -2 -1 33 -60 77 -131 44 -70 80 -129 80 -131 0 -2
21 -36 47 -76 25 -40 70 -112 99 -160 l53 -88 -101 -177 c-55 -98 -112 -198
-126 -223 -14 -25 -52 -92 -85 -150 -33 -58 -62 -109 -64 -113 -3 -5 35 -6 83
-3 191 12 261 17 309 21 28 2 67 4 88 5 37 0 39 1 68 68 17 37 37 82 46 101 8
18 23 56 32 84 l18 51 16 -49 c10 -27 34 -91 55 -142 l37 -93 90 6 c50 3 108
7 130 9 33 2 207 14 290 19 11 0 20 6 20 11 0 11 -68 119 -282 447 -106 163
-111 173 -98 197 11 22 273 464 337 569 l20 33 -77 -3 c-42 -2 -77 -4 -78 -5z"/>
<path d="M5107 3974 c-1 -1 -47 -5 -102 -8 -162 -10 -260 -18 -267 -22 -4 -3
-7 -179 -7 -392 0 -213 -2 -396 -5 -407 -16 -72 -40 -95 -100 -95 -36 0 -75
27 -77 53 0 6 -3 21 -5 32 -3 11 -5 194 -6 408 l-1 387 -47 0 -47 0 -79 -126
c-44 -69 -85 -132 -91 -139 -7 -8 -13 -17 -13 -20 0 -4 -13 -25 -29 -48 -16
-23 -59 -89 -95 -146 l-67 -103 2 -152 c2 -269 44 -367 199 -461 171 -103 434
-105 640 -4 98 49 200 143 238 221 43 89 48 145 51 599 l2 429 -46 -2 c-25 -1
-47 -3 -48 -4z"/>
<path d="M1560 3746 c-19 -7 -48 -18 -63 -25 -42 -17 -118 -98 -158 -169 l-36
-64 4 84 c2 45 5 96 7 111 l3 28 -91 -6 c-256 -17 -371 -27 -376 -32 -3 -2 -5
-286 -5 -629 l0 -625 75 6 c133 10 183 14 285 20 55 4 101 8 103 10 2 2 5 167
6 367 1 317 4 367 18 394 33 61 84 79 121 42 29 -29 29 -29 31 -468 1 -296 2
-325 18 -324 9 1 63 4 120 8 56 3 141 9 188 13 47 3 96 7 110 7 l25 2 2 477
c2 448 1 481 -18 548 -11 39 -26 83 -33 98 -21 40 -79 96 -122 116 -50 24
-166 30 -214 11z"/>
<path d="M6607 2604 c-2 -2 -101 -11 -202 -20 -33 -2 -80 -7 -105 -9 -53 -5
-139 -13 -230 -20 -36 -3 -85 -7 -110 -10 -25 -2 -76 -6 -115 -10 -90 -7 -168
-14 -225 -20 -25 -2 -83 -7 -130 -10 -47 -4 -96 -8 -110 -10 -26 -4 -117 -12
-230 -20 -36 -3 -85 -7 -110 -10 -42 -4 -89 -8 -220 -20 -30 -3 -86 -7 -125
-10 -38 -3 -90 -7 -115 -10 -25 -2 -76 -7 -115 -10 -38 -3 -88 -8 -110 -10
-22 -2 -74 -7 -115 -10 -41 -3 -86 -8 -100 -10 -14 -2 -65 -7 -115 -10 -49 -4
-106 -8 -125 -10 -19 -2 -69 -7 -110 -10 -41 -3 -95 -7 -120 -10 -25 -3 -74
-8 -110 -10 -36 -3 -90 -7 -120 -10 -30 -3 -84 -7 -120 -10 -36 -3 -81 -7
-100 -10 -19 -2 -73 -7 -120 -10 -47 -4 -96 -8 -110 -10 -14 -2 -68 -7 -120
-10 -52 -3 -106 -8 -120 -10 -14 -2 -61 -6 -105 -10 -78 -6 -131 -11 -225 -20
-25 -2 -79 -7 -120 -10 -41 -3 -95 -8 -120 -11 -25 -2 -76 -6 -115 -9 -38 -3
-86 -7 -105 -10 -19 -2 -71 -7 -115 -10 -44 -4 -96 -8 -115 -10 -19 -2 -69 -6
-110 -10 -41 -3 -95 -7 -120 -10 -25 -2 -79 -7 -120 -10 -41 -4 -91 -8 -110
-10 -19 -2 -69 -7 -110 -10 -100 -8 -152 -13 -230 -20 -36 -3 -90 -8 -120 -10
-80 -7 -168 -15 -225 -20 -27 -3 -75 -7 -105 -10 -127 -10 -197 -16 -235 -20
-22 -2 -76 -7 -120 -10 -44 -4 -83 -9 -88 -12 -7 -4 -1 -59 9 -75 3 -4 9 -6
13 -3 5 2 35 7 67 10 33 2 91 7 129 10 39 4 86 8 105 10 19 2 73 6 120 10 47
3 101 8 120 10 19 3 69 7 110 10 41 3 91 7 110 10 19 2 73 7 120 11 47 4 99 8
115 9 17 2 68 6 115 10 47 3 96 8 110 10 14 2 63 6 110 10 47 3 99 7 115 9 17
2 68 7 115 11 47 3 101 8 120 10 19 3 67 7 105 10 91 6 191 15 235 20 19 2 73
7 120 11 47 3 99 7 115 9 17 1 66 6 110 9 44 4 94 9 111 11 17 3 67 7 110 10
44 3 97 8 119 10 22 2 72 6 110 9 39 3 93 8 120 11 61 6 136 12 235 20 41 3
91 8 110 10 19 2 71 7 115 10 44 3 91 8 105 10 14 2 63 6 110 10 47 4 101 8
120 10 19 2 71 6 115 9 44 4 94 8 110 10 17 2 71 7 120 11 50 3 104 8 120 10
17 2 64 7 105 10 41 3 95 8 120 10 41 4 98 9 230 20 25 2 72 7 105 9 33 3 92
8 130 11 39 3 88 8 110 10 22 3 69 7 105 10 158 13 251 21 350 30 25 2 74 7
110 10 36 3 88 7 115 10 28 2 79 7 115 10 36 3 88 8 115 10 28 2 79 7 115 10
75 6 148 13 223 20 28 3 86 7 127 10 41 3 91 7 110 10 19 2 71 7 115 10 44 4
82 9 85 12 3 2 5 20 5 39 l0 35 -68 -3 c-38 -2 -69 -4 -70 -4z"/>
</g>
</svg>
